<svg id="Layer_1" data-name="Layer 1" xmlns="http://www.w3.org/2000/svg" viewBox="0 0 1200 1200">
  <defs>
    <style>.cls-1{fill:#fff;}</style>
  </defs><title>LOW_HEAT_LOGO_WHITE</title>
  <path class="cls-1" d="M986.09,268.41c1.59,1.75,2.37,3.28,2.36,4.61s-.94,2.83-2.78,4.51q-7.23,6.59-14.73,12.72t-14.89,12.86q-10.31,9.39-21.1,18.24t-21.1,18.24q-4.3,3.93-5.56,7.18a20.74,20.74,0,0,0-1.45,5.82c-.13,1.71-.25,3.33-.37,4.85a6.74,6.74,0,0,1-2.49,4.37,10.57,10.57,0,0,1-2.21,1.59,4.91,4.91,0,0,1-2.6.55A57,57,0,0,1,888.69,366a55.27,55.27,0,0,0-10.48,2.09,19.67,19.67,0,0,1-3.73-5.48,17.75,17.75,0,0,1-1.3-5.14,44,44,0,0,1-.19-5.46c0-1.91,0-4.1-.21-6.56a18,18,0,0,1,2.23-5.27,61.78,61.78,0,0,1,3.72-5.5,53.48,53.48,0,0,1,4.36-5.1q2.31-2.4,4.16-4.08,12.46-11.35,25.34-22.24t25.34-22.25a70,70,0,0,0,7-7.4q3.21-3.9,5.95-7.53t5-6.69a34.54,34.54,0,0,1,4.28-4.88l1.37-1a3.11,3.11,0,0,1,2,.83c.56.52,1.08,1,1.54,1.54a42.38,42.38,0,0,0,9.51,7.81A39.78,39.78,0,0,0,986.09,268.41Z"/><path class="cls-1" d="M1044.07,401.81a19.74,19.74,0,0,1,1.52,5.5,49.65,49.65,0,0,1,.52,7.27,50.53,50.53,0,0,1-.5,7.3,23.55,23.55,0,0,1-1.36,5.52,30.06,30.06,0,0,1-8.07,10.52,90.39,90.39,0,0,1-12.67,9.17,157.28,157.28,0,0,1-14.23,7.61q-7.24,3.41-12.49,6-1.68.81-4.82,2.22c-2.09.94-4.28,1.82-6.59,2.63s-4.51,1.5-6.63,2.07a12.43,12.43,0,0,1-4.93.55,8.67,8.67,0,0,1-3.52-1.53,34.48,34.48,0,0,1-3.42-2.74l-3.31-3a12.61,12.61,0,0,0-3.14-2.18c-2.41-1.14-4.59-2.13-6.53-2.95s-3.88-1.55-5.79-2.16-3.92-1.22-6-1.84-4.34-1.24-6.81-1.89A51.22,51.22,0,0,1,934,442.7c-.32-2.7-.5-5.54-.56-8.52s0-5.85.09-8.61a50.34,50.34,0,0,1,.78-7.2q1-5.58,6.49-10.21a75.83,75.83,0,0,1,12.42-8.47,150.42,150.42,0,0,1,14.22-6.92q7.29-3.09,12-5.36,8.43-4.1,16.66-8.56a126.33,126.33,0,0,0,14.72-9.24l2.27,5.15a28.81,28.81,0,0,0,7,8.63,128.74,128.74,0,0,0,10.06,8.07q5.16,3.74,9.28,6.48T1044.07,401.81Zm-30.21-3.13a198.31,198.31,0,0,0-23.48,10.95q-12,6.53-23.6,13.1c-.87.42-1.66,1.58-2.37,3.46a44.5,44.5,0,0,0-1.79,6.31,47.48,47.48,0,0,0-1,6.6,9.46,9.46,0,0,0,.41,4.42,5.44,5.44,0,0,0,1.43,1.74,2,2,0,0,0,2.28.16l11.6-5.64c2-1,4.6-2.2,7.81-3.68s6.59-3.17,10.15-5.05,7.07-3.94,10.54-6.17a43,43,0,0,0,8.73-7.25,21.16,21.16,0,0,0,4.79-8.23,12.23,12.23,0,0,0-1-9l-2-2.73Z"/><path class="cls-1" d="M1093.41,537a11,11,0,0,1-2.3,7.73,29.8,29.8,0,0,1-5.86,5.52q-3.3,2.36-6.23,4.28a9,9,0,0,0-3.65,3.84,33.49,33.49,0,0,0,5.2,5.77q2.73,2.36,5.23,4.31c1.67,1.3,3.22,2.47,4.67,3.5a24.56,24.56,0,0,1,3.94,3.55c.16.54.29,1,.38,1.43a9.4,9.4,0,0,1,.18,1.45,13.37,13.37,0,0,1-1.45,6,39.7,39.7,0,0,1-3.91,6.77,41.56,41.56,0,0,1-5.11,5.89,17.51,17.51,0,0,1-5,3.6,7.8,7.8,0,0,0,2.35,4.88,38.89,38.89,0,0,0,5,4.53c1.88,1.42,3.76,2.82,5.64,4.18a19.64,19.64,0,0,1,4.16,3.84q-1.4,5.28-2.77,10.67a35.68,35.68,0,0,0-1.1,10.79,10.21,10.21,0,0,0,.81,3.39,10.06,10.06,0,0,1,.8,3.4,7.72,7.72,0,0,1-1,4.43l-1.45.29a9.58,9.58,0,0,1-5.49-1.38,9.58,9.58,0,0,0-5.49-1.38q-14.32.76-28.33,2t-28.34,2q-8.1.43-12.32-.59a14.57,14.57,0,0,1-6.86-3.6,30.8,30.8,0,0,1-4.92-6.41,93.68,93.68,0,0,0-6.32-9,20.76,20.76,0,0,0-4.5-4.35c-1.66-1.16-3.35-2.29-5.07-3.37s-3.48-2.11-5.27-3.06a30.72,30.72,0,0,1-5.08-3.38,35.75,35.75,0,0,0,4.72-9.31c.83-2.75,1.69-5.44,2.6-8.06a38,38,0,0,1,4.24-8.35q2.9-4.43,9.89-10a37.27,37.27,0,0,0-3.37-4.72,31.66,31.66,0,0,0-4.18-4,15.47,15.47,0,0,0-3.94-3.54,28,28,0,0,0-3.74-1.89c-1.21-.49-2.35-1-3.41-1.48a9.81,9.81,0,0,1-2.93-2.14,1.87,1.87,0,0,1-1.32-1.29,8.73,8.73,0,0,1-.31-2,10.89,10.89,0,0,1,.89-4.73,42.6,42.6,0,0,1,2.45-4.93,30.72,30.72,0,0,1,3.2-4.54c1.18-1.39,2.29-2.59,3.35-3.62a40.7,40.7,0,0,1,9.4-7.47,30.62,30.62,0,0,1,9.2-3.3,59.92,59.92,0,0,1,10.16-1q5.42-.08,12.27-.44a97.87,97.87,0,0,1,12.82.15,96.89,96.89,0,0,0,12.62.17,43.94,43.94,0,0,0,4.66-.56,54.78,54.78,0,0,0,5.56-1.23,26.06,26.06,0,0,0,5.2-2,8,8,0,0,0,3.39-3c.64-1,1.27-2.12,1.9-3.33a3.38,3.38,0,0,1,3-1.93,7.34,7.34,0,0,1,4.06,4,14.34,14.34,0,0,0,3.49,4.82,20.87,20.87,0,0,0,6.78,4.12A20.8,20.8,0,0,1,1093.41,537Zm-23.18,22.69a10.46,10.46,0,0,0-1.41-1.07,12.35,12.35,0,0,0-1.61-.86q-8.94.48-17.88.74t-17.88.74l-9.35.5a41.16,41.16,0,0,0-10.22,1.79,20.41,20.41,0,0,0-8.09,4.59q-3.27,3.09-3,9.12a4.26,4.26,0,0,0,.75,2.35,13.11,13.11,0,0,0,1.77,1.89c1.95.17,3.8.29,5.54.33s3.58,0,5.52-.08l21.82-1.16q10.8-.57,21.77-2a15.43,15.43,0,0,0,9.34-4.56,12.54,12.54,0,0,0,3.44-9.87A11.2,11.2,0,0,0,1070.23,559.71Zm-17.25,44q-3.12.16-8.22.23c-3.41,0-7,.16-10.82.36a91.39,91.39,0,0,0-11.39,1.34,42.14,42.14,0,0,0-10.25,3.14,20.13,20.13,0,0,0-7.32,5.5,12.39,12.39,0,0,0-2.45,8.77,4.2,4.2,0,0,0,1.21,3.06,87.5,87.5,0,0,0,10.63.07q13.71-.74,27.52-1.56t27.52-1.77l2.06-.32a31.69,31.69,0,0,1,.79-8.79,29.68,29.68,0,0,0,.82-8.17c0-1-1-1.62-2.81-1.94a37,37,0,0,0-6.18-.5q-3.43,0-6.65.24C1055.29,603.6,1053.81,603.71,1053,603.75Z"/><path class="cls-1" d="M1054.89,846.94q-.65,1.8-2.09,6.67t-3.12,10.07q-1.68,5.22-3,9.53a40.7,40.7,0,0,1-1.68,4.84,2.65,2.65,0,0,1-1.9,1.27,5.26,5.26,0,0,1-2.55-.25A18.07,18.07,0,0,1,1038,878c-.8-.42-1.44-.78-1.91-1.07a74.53,74.53,0,0,1-8.81-6.5,72.55,72.55,0,0,0-8.82-6.51q-3.36-2.1-6.72-4t-7-3.61a43.08,43.08,0,0,0,1.38,13.87,113.65,113.65,0,0,0,4.14,13.39,27.93,27.93,0,0,1-8.38,8.87,24.7,24.7,0,0,1-10,3.81,27.66,27.66,0,0,1-11-.72,39.32,39.32,0,0,1-11-4.8q-6.18-3.87-12.69-7.57t-12.68-7.58q-9.52-6-18.41-11.77a141.37,141.37,0,0,1-17.06-13.14q-3.79-3.35-7.65-11.9A128.56,128.56,0,0,1,895,820.45a99.4,99.4,0,0,1-3.39-18.69c-.46-5.94.2-10.31,2-13.14a12.54,12.54,0,0,1,1.79-2.07c.74.14,1.49.24,2.26.31a4.61,4.61,0,0,1,2,.67,4.45,4.45,0,0,1,1.83,2.37,20.77,20.77,0,0,1,.94,3.41c.22,1.2.41,2.42.53,3.65a10.77,10.77,0,0,0,.82,3.21,71.59,71.59,0,0,0,8.2,13.36,90.14,90.14,0,0,0,10.34,11.14,124.81,124.81,0,0,0,11.93,9.56q6.31,4.42,13.19,8.74,2.46,1.54,6.59,4.37c2.75,1.88,5.75,3.81,9,5.78s6.66,3.8,10.17,5.51a49.66,49.66,0,0,0,10.07,3.72,19.73,19.73,0,0,0,8.75.33,9.8,9.8,0,0,0,6.39-4.72,15,15,0,0,0,1.86-5.71Q991.43,846.73,983,841t-17.24-11.29q-4.41-2.76-8.95-5.11t-9.13-5.22a14.19,14.19,0,0,0-5.52,1.57c-1.81.92-3.58,1.73-5.33,2.43A54.47,54.47,0,0,1,928,811a59.42,59.42,0,0,1-5.35-14.39l.59-1.35q3.76-6,9.46-7.46a28.31,28.31,0,0,1,11.91-.4,48.31,48.31,0,0,1,12.29,3.9,95.36,95.36,0,0,1,10.32,5.47q8.64,5.41,17.91,11.59t18.92,12.33q9.64,6.15,19.24,11.8t18.8,10.18a21.29,21.29,0,0,0,6.4,1.92A15.51,15.51,0,0,1,1054.89,846.94Z"/><path class="cls-1" d="M897,1006.28a3.78,3.78,0,0,1-3.47.69,11.23,11.23,0,0,1-4.73-3.65,41.69,41.69,0,0,0-4.34-4.49,51.53,51.53,0,0,0-6.12-3.71q-4.07-2.18-8.31-4.08c-2.82-1.27-5.32-2.4-7.48-3.4a14.12,14.12,0,0,1-3.77-2.15l-1-1.58q.54-14.11,1.25-27.56a204.06,204.06,0,0,0-.51-27.75l-2-2.41a57.07,57.07,0,0,0-9.84,1.61,22.65,22.65,0,0,0-8.8,4.51,9,9,0,0,0-3.12,4.41,11.81,11.81,0,0,0-.32,5,22.79,22.79,0,0,0,1.43,5.2q1.05,2.59,2,4.74a12.94,12.94,0,0,0-3.21,4,33.17,33.17,0,0,1-5.62-10.33,65.2,65.2,0,0,1-3-12.49,67.49,67.49,0,0,1-.54-13,55.85,55.85,0,0,1,1.76-11.65l6-5.16a26.15,26.15,0,0,1,11-5,122.83,122.83,0,0,1,12.2-2.18,15.85,15.85,0,0,1,6.76.39,25.84,25.84,0,0,1,11.23,6.67q2.36,2.38,4.33,4.8l24.23,29.64a69.84,69.84,0,0,0,10.08,10,67.89,67.89,0,0,1,9.82,9.71,6.62,6.62,0,0,1,.77,1.25c.25.51.46,1,.62,1.37a88.89,88.89,0,0,0-15.94,20.69,114.55,114.55,0,0,0-10.18,24A3.37,3.37,0,0,1,897,1006.28Zm1.42-34.76q-7.63-9.35-15.68-19T865,932.23c.1,3,.21,6.67.36,11.12s.23,8.45.27,12a11.47,11.47,0,0,0,.9,2.08,12.65,12.65,0,0,0,1.22,1.83,11.3,11.3,0,0,0,3,2.08c1.59.85,3.32,1.71,5.21,2.59s3.67,1.7,5.37,2.46l3.82,1.72a13.89,13.89,0,0,1,3.75,2.45l3.31,3.06a32.49,32.49,0,0,0,3.56,2.88,11.86,11.86,0,0,0,4.17,1.82,33.66,33.66,0,0,1-.37-3.59A5.44,5.44,0,0,0,898.45,971.52Z"/><path class="cls-1" d="M765.19,1077.13a8.23,8.23,0,0,1-2.33,0,45.54,45.54,0,0,0-4.8-.14,55.31,55.31,0,0,0-6.13.46,31,31,0,0,0-6.58,1.62q-2.93,1.07-5.88,2a28.12,28.12,0,0,1-6.18,1.25,18.41,18.41,0,0,1-1.46-2.79,42.35,42.35,0,0,1-2.42-11.52,43,43,0,0,0-2.5-11.72q-3.84-10.54-8.38-21.19t-8.38-21.2a20.88,20.88,0,0,0-1.54-3.31,9.49,9.49,0,0,0-2.44-2.76,5.42,5.42,0,0,0-5.09-3,43.42,43.42,0,0,1-6.06-.22,15.27,15.27,0,0,1-1-5.08q0-2.53.15-5a48.82,48.82,0,0,0,2.74-8.3,78.05,78.05,0,0,1,2.45-8.42,3.33,3.33,0,0,0,.83-1.64,12.7,12.7,0,0,1,.54-1.85,5.11,5.11,0,0,1,.87-1.54,2,2,0,0,1,1.65-.6,25.37,25.37,0,0,1,9.05,2.24,28,28,0,0,1,6.41,4.31q2.79,2.54,5.32,5.26a40.15,40.15,0,0,0,5.54,5q1.92-6.9,4.26-15.06T738,959l2.48-1.12a14,14,0,0,1,7.46-.17,36.84,36.84,0,0,1,9,3,48.83,48.83,0,0,1,8.27,5.07,18.35,18.35,0,0,1,5.36,5.91,130.39,130.39,0,0,1,8,17.23q3.69,9.5,6.68,17.72a101.05,101.05,0,0,1,3,9.76,97.14,97.14,0,0,0,3,9.75,43,43,0,0,0,5.45,10.42,41.63,41.63,0,0,1,5.31,10,30.34,30.34,0,0,1-7.3,4.54,50.58,50.58,0,0,0-7.63,4.22,49.5,49.5,0,0,0-6.8,5.58q-3.76,3.59-7.12,7.13t-5.56,6.23A25.85,25.85,0,0,1,765.19,1077.13Zm5.29-28.28q-1.85-7.51-4.53-15.17t-5.31-14.9l-5.48-15.06a43.06,43.06,0,0,0-2.8-6.17,17.38,17.38,0,0,0-3.86-4.8,11,11,0,0,0-5.23-2.52,12.54,12.54,0,0,0-6.7.77,13.64,13.64,0,0,0-2.79,1.46c-.94.64-1.27,1.87-1,3.68a24.22,24.22,0,0,0,.86,3.9q4.55,11.85,9,23.61t8.85,23.68a10.6,10.6,0,0,1,.56,2.46,4.85,4.85,0,0,1-.49,2.61,6.1,6.1,0,0,0,3.27.47c1.61-.07,3.32-.21,5.16-.44s3.58-.49,5.24-.8a24.71,24.71,0,0,0,3.47-.82Z"/><path class="cls-1" d="M609,1123.69a1.77,1.77,0,0,1-1.23.66q-2.07.06-2.88-2.52a22.12,22.12,0,0,1-.89-5.91,53.19,53.19,0,0,1,.24-6.67,43.88,43.88,0,0,0,.29-4.58c0-1.25-.07-2.64-.11-4.16a7.25,7.25,0,0,0-1.15-3.93,25.15,25.15,0,0,0-7.6-.31,25.54,25.54,0,0,1-7.61-.32c-.44-1-.81-1.89-1.12-2.78a10.24,10.24,0,0,1-.49-3,11,11,0,0,1,.7-4.81,5,5,0,0,1,2.33-2.46,8.58,8.58,0,0,1,3.62-.82l4.36-.12a6.44,6.44,0,0,0,4.33-1.57q.8-9.2,1.09-17.62t.09-15.93q-.16-6.24-.3-11a24.15,24.15,0,0,0-1.58-8.39,12.64,12.64,0,0,0-5-5.9q-3.49-2.31-10.19-3.58a23.57,23.57,0,0,0,.31-3.86,9.77,9.77,0,0,1,.15-2.19,10.29,10.29,0,0,1,.48-1.57,7.67,7.67,0,0,1,.89-1.59c.8-1.13,2-2.86,3.61-5.19s3.38-4.67,5.33-7a61.2,61.2,0,0,1,5.76-6.09q2.85-2.57,4.93-2.63a7.55,7.55,0,0,1,4.41,1.34q2.11,1.4,3.81,2.6a43.52,43.52,0,0,1,5.22,4.44,38.78,38.78,0,0,1,4.73,5.6,31.41,31.41,0,0,1,3.4,6.26,18.85,18.85,0,0,1,1.43,6.62l.09,49.74c-.08,2.09-.09,4.13,0,6.15s.11,4,.16,5.92a4.6,4.6,0,0,0,2.61,4.1,35.21,35.21,0,0,1,8.13.61,6.61,6.61,0,0,0,.26,1.76,6.61,6.61,0,0,1,.26,1.76c0,.42-.69,1.65-2.09,3.7s-3.21,4.49-5.42,7.33-4.63,5.81-7.25,8.94-5.15,6.07-7.57,8.84-4.58,5.09-6.47,6.94A15.17,15.17,0,0,1,609,1123.69Z"/><path class="cls-1" d="M436.24,985.32a15.1,15.1,0,0,1-4.23-1.27,20.28,20.28,0,0,1-7.39-5.83A29.37,29.37,0,0,1,420,970l2-4.81a50.51,50.51,0,0,1,6.35-10.24,36.91,36.91,0,0,1,9-8.09c.46-1,1.33-1.22,2.58-.64a8.13,8.13,0,0,1,3.1,2.47c.81,1.06,1.6,2.16,2.38,3.28s1.64,2.25,2.57,3.37a10.28,10.28,0,0,0,3.66,2.73,4.19,4.19,0,0,1,2.62,3.27,2.47,2.47,0,0,1,.27,2.88,23,23,0,0,1-6.1,7.72,24.26,24.26,0,0,0-6.36,8.29,9.6,9.6,0,0,0-2.76,2.74A6.06,6.06,0,0,1,436.24,985.32Z"/><path class="cls-1" d="M198.39,937.3q-2.26-2.71-2.16-4.7c.07-1.32,1.07-2.79,3-4.38q7.51-6.27,15.28-12.07T229.92,904q10.71-8.94,21.88-17.3t21.88-17.3q4.47-3.74,5.87-6.93a20.67,20.67,0,0,0,1.7-5.76c.21-1.7.4-3.31.58-4.82a6.74,6.74,0,0,1,2.68-4.26,11,11,0,0,1,2.28-1.5,4.92,4.92,0,0,1,2.62-.42A56.11,56.11,0,0,1,300,844a56.91,56.91,0,0,0,10.57-1.63A19.47,19.47,0,0,1,314,848a17.88,17.88,0,0,1,1.08,5.19,47.87,47.87,0,0,1-.05,5.47c-.13,1.91-.15,4.09-.08,6.56a17.86,17.86,0,0,1-2.46,5.17,61.19,61.19,0,0,1-4,5.33,53.31,53.31,0,0,1-4.58,4.91c-1.61,1.53-3.06,2.82-4.34,3.89q-12.94,10.8-26.28,21.11t-26.29,21.11a70.7,70.7,0,0,0-7.36,7.09q-3.37,3.76-6.27,7.27c-1.94,2.33-3.71,4.49-5.32,6.46a34.84,34.84,0,0,1-4.48,4.69l-1.41.91a3.14,3.14,0,0,1-2-.92c-.54-.54-1-1.08-1.48-1.61a42.29,42.29,0,0,0-9.15-8.22A40,40,0,0,0,198.39,937.3Z"/><path class="cls-1" d="M146.32,801.49a19.43,19.43,0,0,1-1.28-5.57,51.07,51.07,0,0,1-.21-7.28,53.49,53.49,0,0,1,.82-7.27,23.82,23.82,0,0,1,1.61-5.45,30,30,0,0,1,8.53-10.16,89.31,89.31,0,0,1,13.05-8.6,161.33,161.33,0,0,1,14.55-7q7.4-3.07,12.74-5.4,1.73-.75,4.91-2c2.13-.85,4.37-1.63,6.7-2.34s4.58-1.3,6.72-1.77a12.43,12.43,0,0,1,5-.33,8.65,8.65,0,0,1,3.44,1.68,32.76,32.76,0,0,1,3.29,2.88l3.18,3.16a12.63,12.63,0,0,0,3,2.31q3.52,1.88,6.39,3.24c1.91.92,3.8,1.72,5.69,2.41s3.85,1.4,5.9,2.1,4.28,1.43,6.72,2.19a50.93,50.93,0,0,1,1,7.18q.29,4.07.18,8.54c-.07,3-.22,5.84-.47,8.59a50.07,50.07,0,0,1-1.1,7.16q-1.23,5.54-6.93,9.92a76.39,76.39,0,0,1-12.78,7.92,150.13,150.13,0,0,1-14.51,6.28q-7.43,2.76-12.2,4.83-8.59,3.72-17,7.82a126.37,126.37,0,0,0-15.1,8.58l-2-5.24a29,29,0,0,0-6.59-8.94q-4.69-4.55-9.69-8.5t-9-6.88Q146.81,802.65,146.32,801.49Zm30,4.46A199.91,199.91,0,0,0,200.3,796q12.25-6,24.15-12c.89-.38,1.73-1.5,2.51-3.35a43.3,43.3,0,0,0,2.07-6.23,49.3,49.3,0,0,0,1.25-6.55,9.35,9.35,0,0,0-.23-4.44,5.22,5.22,0,0,0-1.34-1.79,2,2,0,0,0-2.27-.27l-11.84,5.13c-2,.88-4.69,2-8,3.33s-6.73,2.88-10.37,4.6-7.23,3.63-10.8,5.7a43,43,0,0,0-9,6.86,21.18,21.18,0,0,0-5.15,8,12.23,12.23,0,0,0,.62,9l1.89,2.81Z"/><path class="cls-1" d="M103,664.24a11,11,0,0,1,2.64-7.62,29.44,29.44,0,0,1,6.09-5.26q3.42-2.21,6.42-4a8.86,8.86,0,0,0,3.81-3.67,33.15,33.15,0,0,0-4.94-6q-2.62-2.48-5-4.54t-4.51-3.7a24.56,24.56,0,0,1-3.78-3.71c-.14-.56-.25-1-.32-1.46a7.71,7.71,0,0,1-.12-1.45,13.35,13.35,0,0,1,1.72-6,39.42,39.42,0,0,1,4.2-6.59,42,42,0,0,1,5.36-5.67,17.91,17.91,0,0,1,5.18-3.37,7.86,7.86,0,0,0-2.13-5,38.79,38.79,0,0,0-4.83-4.74q-2.72-2.26-5.45-4.43a19.66,19.66,0,0,1-4-4c1.09-3.48,2.16-7,3.24-10.54a35.57,35.57,0,0,0,1.57-10.73,10.38,10.38,0,0,0-.65-3.42,10.25,10.25,0,0,1-.66-3.43,7.71,7.71,0,0,1,1.21-4.38l1.46-.22a9.55,9.55,0,0,1,5.42,1.61,9.52,9.52,0,0,0,5.43,1.62q14.35-.12,28.39-.77t28.4-.77q8.12-.07,12.29,1.14a14.58,14.58,0,0,1,6.69,3.89,31.29,31.29,0,0,1,4.64,6.62,93.61,93.61,0,0,0,5.9,9.31,20.78,20.78,0,0,0,4.31,4.54q2.41,1.86,4.92,3.6t5.13,3.28a31.64,31.64,0,0,1,4.92,3.6,35.83,35.83,0,0,0-5.12,9.1c-.95,2.71-1.93,5.36-2.95,7.93a38.14,38.14,0,0,1-4.61,8.16q-3.08,4.29-10.32,9.56a37.07,37.07,0,0,0,3.17,4.86,31.31,31.31,0,0,0,4,4.23,15.79,15.79,0,0,0,3.78,3.71,27.84,27.84,0,0,0,3.65,2c1.19.55,2.3,1.09,3.35,1.64a9.73,9.73,0,0,1,2.83,2.26,1.86,1.86,0,0,1,1.26,1.34,9,9,0,0,1,.22,2,10.7,10.7,0,0,1-1.1,4.69,42.65,42.65,0,0,1-2.66,4.81,31.17,31.17,0,0,1-3.4,4.4q-1.85,2-3.5,3.46a41,41,0,0,1-9.72,7.06,30.89,30.89,0,0,1-9.34,2.89,61.92,61.92,0,0,1-10.19.51q-5.42-.17-12.28-.1a99.26,99.26,0,0,1-12.8-.72,95.84,95.84,0,0,0-12.6-.72,42,42,0,0,0-4.68.35,50,50,0,0,0-5.61,1,26.81,26.81,0,0,0-5.29,1.81,8,8,0,0,0-3.51,2.84c-.68,1-1.37,2.06-2,3.24a3.38,3.38,0,0,1-3.11,1.8,7.34,7.34,0,0,1-3.88-4.13,14.4,14.4,0,0,0-3.27-5,20.75,20.75,0,0,0-6.6-4.42A21,21,0,0,1,103,664.24Zm43.33-64.89c2.08,0,4.83,0,8.22.13s7,.15,10.83.12a91.53,91.53,0,0,0,11.43-.83,42.06,42.06,0,0,0,10.38-2.7,19.94,19.94,0,0,0,7.55-5.16,12.37,12.37,0,0,0,2.84-8.66,4.22,4.22,0,0,0-1.07-3.11,86.43,86.43,0,0,0-10.62-.53q-13.72.12-27.56.34t-27.57.56l-2.08.23a31.4,31.4,0,0,1-1.17,8.75,29.56,29.56,0,0,0-1.18,8.12c0,1,.92,1.66,2.73,2.06a37.56,37.56,0,0,0,6.14.78q3.44.18,6.66,0C144,599.4,145.5,599.36,146.33,599.35Zm-19.17,43.24a10.59,10.59,0,0,0,1.36,1.13,11.59,11.59,0,0,0,1.57.93q8.94-.09,17.89.05t17.9,0l9.36-.09a41.43,41.43,0,0,0,10.29-1.34,20.57,20.57,0,0,0,8.29-4.23q3.41-2.94,3.35-9a4.21,4.21,0,0,0-.65-2.39,13.27,13.27,0,0,0-1.68-2q-2.91-.39-5.52-.57c-1.73-.12-3.57-.18-5.51-.16l-21.85.19q-10.82.09-21.84,1a15.36,15.36,0,0,0-9.53,4.14,12.49,12.49,0,0,0-3.87,9.71A11,11,0,0,0,127.16,642.59Z"/><path class="cls-1" d="M155.11,356.31c.48-1.19,1.28-3.38,2.38-6.57s2.3-6.51,3.56-9.93,2.41-6.56,3.44-9.39a40.5,40.5,0,0,1,1.89-4.76,2.66,2.66,0,0,1,2-1.18,5.16,5.16,0,0,1,2.54.36,18.62,18.62,0,0,1,2.46,1.19c.78.46,1.4.84,1.86,1.15a73.6,73.6,0,0,1,8.52,6.89,72.47,72.47,0,0,0,8.52,6.88q3.26,2.25,6.54,4.26c2.2,1.35,4.46,2.65,6.78,3.92a43.18,43.18,0,0,0-.76-13.93,116.89,116.89,0,0,0-3.54-13.56,27.9,27.9,0,0,1,8.76-8.49,24.82,24.82,0,0,1,10.15-3.36A27.53,27.53,0,0,1,231.08,311a39.26,39.26,0,0,1,10.77,5.27q6,4.14,12.34,8.13t12.34,8.13q9.25,6.38,17.87,12.57A140.72,140.72,0,0,1,300.86,359q3.64,3.51,7.12,12.23a127.75,127.75,0,0,1,5.74,18.61,98.87,98.87,0,0,1,2.56,18.83q.3,8.93-2.54,13a11,11,0,0,1-1.88,2c-.73-.16-1.47-.3-2.24-.41a4.68,4.68,0,0,1-2-.75,4.56,4.56,0,0,1-1.72-2.45,20.23,20.23,0,0,1-.78-3.45c-.18-1.21-.31-2.43-.38-3.67a10.62,10.62,0,0,0-.67-3.24A71.65,71.65,0,0,0,296.45,396a90.61,90.61,0,0,0-9.83-11.58,123.36,123.36,0,0,0-11.51-10.08Q269,369.62,262.33,365q-2.4-1.65-6.39-4.66c-2.67-2-5.58-4.05-8.77-6.16s-6.48-4.09-9.92-6a49.82,49.82,0,0,0-9.89-4.16,19.8,19.8,0,0,0-8.73-.72,9.84,9.84,0,0,0-6.59,4.43,14.83,14.83,0,0,0-2.11,5.63q8.56,5.89,16.72,12t16.73,12q4.27,3,8.71,5.51T261,388.6a14.25,14.25,0,0,0,5.59-1.33q2.76-1.25,5.43-2.19a54.45,54.45,0,0,1,8.26,12.77A59.61,59.61,0,0,1,285,412.46l-.66,1.32q-4,5.82-9.77,7a28.22,28.22,0,0,1-11.92-.12,48.67,48.67,0,0,1-12.11-4.43,95.91,95.91,0,0,1-10.07-5.93q-8.38-5.79-17.38-12.36t-18.35-13.16q-9.36-6.57-18.71-12.64t-18.32-11a21.13,21.13,0,0,0-6.32-2.21A15.76,15.76,0,0,1,155.11,356.31Z"/><path class="cls-1" d="M319.77,204.09a3.78,3.78,0,0,1,3.49-.53,11.16,11.16,0,0,1,4.56,3.84,41.4,41.4,0,0,0,4.15,4.68,50.88,50.88,0,0,0,5.95,4q4,2.35,8.12,4.43t7.33,3.73a13.75,13.75,0,0,1,3.67,2.31l.95,1.62q-1.15,14.08-2.45,27.49a204.48,204.48,0,0,0-.71,27.73l1.87,2.5a57.73,57.73,0,0,0,9.9-1.17,22.88,22.88,0,0,0,9-4.13,9,9,0,0,0,3.31-4.27,12,12,0,0,0,.54-5,22.81,22.81,0,0,0-1.2-5.26c-.63-1.76-1.22-3.36-1.79-4.82a13,13,0,0,0,3.39-3.81A33.33,33.33,0,0,1,385,268a65.57,65.57,0,0,1,2.41,12.61,67.21,67.21,0,0,1,0,13,55.81,55.81,0,0,1-2.27,11.57L378.9,310a26.15,26.15,0,0,1-11.2,4.47,122.36,122.36,0,0,1-12.28,1.64,15.79,15.79,0,0,1-6.74-.68,25.81,25.81,0,0,1-10.93-7.16q-2.25-2.47-4.11-5l-22.91-30.67a70,70,0,0,0-9.64-10.47,67.14,67.14,0,0,1-9.38-10.13,6.48,6.48,0,0,1-.72-1.28c-.23-.52-.42-1-.56-1.4a88.55,88.55,0,0,0,16.82-20,114.08,114.08,0,0,0,11.22-23.57A3.39,3.39,0,0,1,319.77,204.09Zm-2.94,34.66q7.21,9.67,14.84,19.7t16.87,21c0-3,.08-6.68.13-11.13s.13-8.45.25-12a11.08,11.08,0,0,0-.81-2.13,11.34,11.34,0,0,0-1.14-1.87,10.93,10.93,0,0,0-3-2.21q-2.32-1.38-5.09-2.82t-5.26-2.7l-3.74-1.88a13.56,13.56,0,0,1-3.64-2.61c-1-1-2.09-2.11-3.17-3.21a33.69,33.69,0,0,0-3.43-3,11.89,11.89,0,0,0-4.1-2,30.94,30.94,0,0,1,.22,3.6A5.4,5.4,0,0,0,316.83,238.75Z"/><path class="cls-1" d="M454.66,139.06a8.55,8.55,0,0,1,2.32.14,46.47,46.47,0,0,0,4.79.35,56.9,56.9,0,0,0,6.14-.19,30.15,30.15,0,0,0,6.65-1.33q3-.93,6-1.77a28.33,28.33,0,0,1,6.22-1,18,18,0,0,1,1.34,2.85A42.62,42.62,0,0,1,490,149.75a43.27,43.27,0,0,0,2,11.81q3.38,10.73,7.44,21.55t7.44,21.54a20.66,20.66,0,0,0,1.39,3.38,9.38,9.38,0,0,0,2.32,2.87,5.4,5.4,0,0,0,4.95,3.24,42.37,42.37,0,0,1,6,.5,15.22,15.22,0,0,1,.74,5.11c0,1.69-.18,3.37-.38,5a49.14,49.14,0,0,0-3.1,8.17,79.92,79.92,0,0,1-2.82,8.31,3.41,3.41,0,0,0-.91,1.59,11.9,11.9,0,0,1-.61,1.83,5.11,5.11,0,0,1-.94,1.5,1.92,1.92,0,0,1-1.67.52,25.32,25.32,0,0,1-8.95-2.63,27.33,27.33,0,0,1-6.21-4.59c-1.78-1.76-3.48-3.6-5.08-5.49a40.23,40.23,0,0,0-5.32-5.2q-2.22,6.81-4.92,14.86t-4.78,14.59l-2.52,1a14,14,0,0,1-7.47-.15,37,37,0,0,1-8.82-3.44,48.07,48.07,0,0,1-8-5.44,18.14,18.14,0,0,1-5.09-6.14,130,130,0,0,1-7.28-17.56q-3.25-9.66-5.88-18a98.46,98.46,0,0,1-2.57-9.88,99.08,99.08,0,0,0-2.56-9.88,43.39,43.39,0,0,0-5-10.64,41.58,41.58,0,0,1-4.86-10.25,30.37,30.37,0,0,1,7.49-4.22,48.34,48.34,0,0,0,14.85-9.14q3.92-3.42,7.42-6.81c2.34-2.26,4.28-4.26,5.84-6A26.16,26.16,0,0,1,454.66,139.06Zm-6.54,28q1.51,7.59,3.85,15.36t4.65,15.12l4.81,15.28a42.45,42.45,0,0,0,2.53,6.3,17.46,17.46,0,0,0,3.64,5,11,11,0,0,0,5.12,2.75,12.6,12.6,0,0,0,6.72-.48,12.93,12.93,0,0,0,2.85-1.33c1-.6,1.36-1.81,1.15-3.64a23.16,23.16,0,0,0-.7-3.92l-8-24q-4-11.94-7.79-24.05a10.76,10.76,0,0,1-.46-2.48,4.86,4.86,0,0,1,.61-2.59,6.09,6.09,0,0,0-3.25-.61c-1.6,0-3.33.06-5.17.21s-3.6.33-5.27.57a23.88,23.88,0,0,0-3.5.66Z"/><path class="cls-1" d="M612.69,99.45a1.77,1.77,0,0,1,1.26-.6c1.38,0,2.3.91,2.76,2.65a21.75,21.75,0,0,1,.63,5.94,53,53,0,0,1-.53,6.65,41.69,41.69,0,0,0-.49,4.57c0,1.25-.05,2.64-.07,4.16a7.21,7.21,0,0,0,1,4,25.46,25.46,0,0,0,7.59.65,25.39,25.39,0,0,1,7.58.65,27.48,27.48,0,0,1,1,2.83,9.89,9.89,0,0,1,.37,3,11.1,11.1,0,0,1-.91,4.77,5,5,0,0,1-2.44,2.35,8.53,8.53,0,0,1-3.65.67l-4.37-.08A6.4,6.4,0,0,0,618,143q-1.2,9.14-1.86,17.55t-.79,15.91c-.07,4.16-.13,7.84-.18,11a24,24,0,0,0,1.2,8.45,12.61,12.61,0,0,0,4.69,6.12q3.39,2.44,10,4a26.59,26.59,0,0,0-.48,3.84,9.48,9.48,0,0,1-.24,2.18,10.1,10.1,0,0,1-.55,1.55,8,8,0,0,1-1,1.55q-1.27,1.64-3.83,5T619.38,227a59,59,0,0,1-6,5.83c-2,1.63-3.65,2.44-5,2.41a7.42,7.42,0,0,1-4.34-1.53c-1.37-1-2.61-1.91-3.7-2.76a42.43,42.43,0,0,1-5-4.67,38.28,38.28,0,0,1-4.48-5.8,31.83,31.83,0,0,1-3.12-6.4,18.88,18.88,0,0,1-1.13-6.68l2.08-49.7c.18-2.08.28-4.12.32-6.13s.06-4,.1-5.93a4.58,4.58,0,0,0-2.43-4.2,36.39,36.39,0,0,1-8.1-1,6.64,6.64,0,0,0-.18-1.78,6.51,6.51,0,0,1-.18-1.77q0-.62,2.25-3.6t5.74-7.08q3.5-4.11,7.64-8.62t7.94-8.5c2.55-2.66,4.8-4.88,6.78-6.65A15.58,15.58,0,0,1,612.69,99.45Z"/><path class="cls-1" d="M779.23,245.27a15.33,15.33,0,0,1,4.17,1.45,20.31,20.31,0,0,1,7.12,6.15,29.42,29.42,0,0,1,4.3,8.44L792.61,266a49.94,49.94,0,0,1-6.8,10,36.62,36.62,0,0,1-9.37,7.68c-.51,1-1.38,1.16-2.61.52a8.11,8.11,0,0,1-3-2.6c-.76-1.1-1.5-2.23-2.23-3.38s-1.53-2.32-2.41-3.48a10.46,10.46,0,0,0-3.55-2.89,4.2,4.2,0,0,1-2.46-3.39,2.42,2.42,0,0,1-.14-2.88,22.92,22.92,0,0,1,6.43-7.45,24.08,24.08,0,0,0,6.72-8,9.43,9.43,0,0,0,2.88-2.61A6.07,6.07,0,0,1,779.23,245.27Z"/><path class="cls-1" d="M600.12,592.43a15.13,15.13,0,0,1,4.31,1,20.27,20.27,0,0,1,7.79,5.27,29.27,29.27,0,0,1,5.26,7.88l-1.64,4.94a49.85,49.85,0,0,1-5.58,10.68,36.87,36.87,0,0,1-8.41,8.73c-.39,1-1.24,1.31-2.53.82a8.09,8.09,0,0,1-3.28-2.23c-.88-1-1.75-2-2.61-3.1s-1.79-2.12-2.81-3.17a10.29,10.29,0,0,0-3.85-2.46,4.16,4.16,0,0,1-2.84-3.07,2.43,2.43,0,0,1-.49-2.85,23.12,23.12,0,0,1,5.52-8.15A24,24,0,0,0,594.7,598a9.6,9.6,0,0,0,2.55-2.93A6.13,6.13,0,0,1,600.12,592.43Z"/><path class="cls-1" d="M599.94,486a15.46,15.46,0,0,1-4.31-.95,20.4,20.4,0,0,1-7.8-5.28,29.31,29.31,0,0,1-5.25-7.88l1.64-167.07a50.16,50.16,0,0,1,5.58-10.69,37,37,0,0,1,8.41-8.72c.39-1,1.24-1.31,2.53-.83a8.08,8.08,0,0,1,3.27,2.24c.89,1,1.76,2,2.62,3.1s1.79,2.12,2.8,3.17a10.27,10.27,0,0,0,3.86,2.45,4.21,4.21,0,0,1,2.84,3.08,2.41,2.41,0,0,1,.48,2.85c-1.07,2.85-2.91,167.71-5.51,170.28a24.11,24.11,0,0,0-5.74,8.74,9.48,9.48,0,0,0-2.55,2.93A6.11,6.11,0,0,1,599.94,486Z"/><path class="cls-1" d="M599.5,736.56a14.72,14.72,0,0,1,4.3,1,20.25,20.25,0,0,1,7.8,5.28,29.7,29.7,0,0,1,5.26,7.87l-1.64,167.08a49.89,49.89,0,0,1-5.59,10.68,36.83,36.83,0,0,1-8.4,8.73c-.4,1-1.24,1.31-2.54.82a8.06,8.06,0,0,1-3.27-2.23c-.88-1-1.76-2-2.61-3.1s-1.8-2.12-2.81-3.17a10.19,10.19,0,0,0-3.86-2.45,4.23,4.23,0,0,1-2.84-3.08,2.45,2.45,0,0,1-.48-2.85c1.08-2.85,2.91-167.71,5.52-170.29a24.25,24.25,0,0,0,5.74-8.73,9.48,9.48,0,0,0,2.55-2.93A6,6,0,0,1,599.5,736.56Z"/><path class="cls-1" d="M725,611.51a15.13,15.13,0,0,1,1-4.31,20.29,20.29,0,0,1,5.28-7.79,29.3,29.3,0,0,1,7.87-5.26l167.08,1.64a49.68,49.68,0,0,1,10.68,5.59,36.64,36.64,0,0,1,8.73,8.4c1,.39,1.31,1.24.82,2.54a8.06,8.06,0,0,1-2.23,3.27c-1,.88-2,1.75-3.1,2.61S919,620,917.9,621a10.29,10.29,0,0,0-2.46,3.85,4.19,4.19,0,0,1-3.07,2.85,2.45,2.45,0,0,1-2.85.48c-2.85-1.08-167.71-2.92-170.29-5.52a24.12,24.12,0,0,0-8.73-5.74,9.6,9.6,0,0,0-2.93-2.55A6.13,6.13,0,0,1,725,611.51Z"/><path class="cls-1" d="M474.45,611.07a15.13,15.13,0,0,1-1,4.31,20.16,20.16,0,0,1-5.27,7.79,29.59,29.59,0,0,1-7.88,5.26l-167.08-1.64a49.91,49.91,0,0,1-10.68-5.59,37,37,0,0,1-8.72-8.4c-1-.39-1.32-1.24-.83-2.54a8.08,8.08,0,0,1,2.24-3.27q1.5-1.32,3.09-2.61c1.07-.86,2.13-1.8,3.18-2.81a10.35,10.35,0,0,0,2.45-3.85,4.21,4.21,0,0,1,3.08-2.85,2.45,2.45,0,0,1,2.85-.48c2.85,1.08,167.71,2.92,170.28,5.52a24.29,24.29,0,0,0,8.73,5.74,9.71,9.71,0,0,0,2.93,2.55A6.13,6.13,0,0,1,474.45,611.07Z"/>
</svg>
